<svg version="1" xmlns="http://www.w3.org/2000/svg" width="933.333" height="933.333" viewBox="0 0 700.000000 700.000000"><path d="M336.5 6.7c-21.7 2.1-34.5 6.7-57 20.8-9.7 6.2-29 21-36.8 28.4-27.8 26.2-43.5 48.6-45.3 64.6-.8 7-2.6 12.3-4.8 14.3-4.1 3.8-6.2 3.7-13.5-.7-7.4-4.3-18.6-8.5-26.6-9.8-2.7-.4-12.6-.8-22-.7-22 .1-36.2 2.9-58.4 11.4-24.4 9.4-47.5 26.6-57 42.4-3.2 5.4-7.6 16.1-8.5 20.8-.2 1.3-.7 3.4-1 4.8-4 17.1-4 46.1-.1 69.6 1.7 10.1 2.1 11.9 6.6 25.9 4.2 13.5 7.8 20.3 20.5 39.1 14.1 20.9 14.9 22 18.7 23.5 6.2 2.7 544.4 1.1 570.7-1.6 8.9-.9 9.9-1.1 14.6-2.7 5.6-2 36.1-25.2 43.7-33.3 7.3-7.7 11.9-17.9 13.8-31 1.2-8 1.4-35.6.5-49-.4-5-.9-12.4-1.2-16.5-1.8-27-7.9-49.2-17.1-63.2-15.3-23.2-41.6-31.9-100.3-33.2-11.4-.3-30.4 3.3-39.5 7.4-1.1.5-7.2 2.9-13.5 5.3-6.3 2.5-13.8 5.4-16.6 6.5l-5.1 2.1-4.4-15.7c-2.3-8.6-4.4-16.2-4.5-16.7-.1-.6-2.3-7.7-4.9-15.9-10.9-34.9-18.1-47.2-37.1-62.7-4-3.2-7.5-5.9-7.9-5.9-.3 0-2.7-1.4-5.2-3.1-13.2-9.1-41.9-19.6-62.3-22.8-3.6-.6-8.1-1.3-10-1.6-4.1-.6-24.1-1.2-28.5-.8zM591.7 381.7c-.3.2-1.5.6-2.8.8-7.9 1.5-13.1 2.9-18.7 5.2l-6.3 2.5-4.4 9.3c-2.5 5-5.9 10.9-7.6 13.1-7.8 9.7-22.3 33.6-36.4 59.9-2.6 4.9-6 11.2-7.5 14-1.5 2.7-4.9 9-7.5 14-5.4 10.2-12.5 23.6-18 34-5 9.3-35.8 69.9-35.7 70.2.1.2-1.1 2.9-2.5 6-5.6 12.6-10.3 24.8-12.3 31.9-1.1 4.1-3.1 9.7-4.5 12.4-1.3 2.7-2.9 6.7-3.4 9-.8 3.6-.6 4.5 1 6.1 1.6 1.6 2.3 1.8 4.2.8 3.8-2 10-7.2 15.5-12.9 9.3-9.6 12.6-15.3 37.5-64 6.8-13.5 14-27.4 15.9-31 2-3.6 6.9-13.1 11.1-21.1 4.1-8 9.2-17.6 11.2-21.5 2.1-3.8 6-11.2 8.8-16.4 4.3-8.2 7.9-14.2 15.6-26 .8-1.4 2-3.3 2.6-4.2.5-.9 2.3-3.8 3.9-6.5C560 453 572.2 435.6 579 428c1.2-1.4 3.4-4.1 4.9-6 1.4-1.9 3.2-4.1 3.9-4.9.7-.7 3.1-4 5.3-7.3 8.8-12.9 12.2-23 8.8-26.3-1.4-1.4-9.3-2.8-10.2-1.8zM138.4 387.5c-1.4 1.4-4.5 3.5-6.8 4.6-2.4 1.1-5.3 3-6.4 4.2-5.9 6.4-20.1 30.3-32.4 54.6-14.7 29-17.7 34.7-34.6 66.1-12.6 23.5-26.9 52.1-30.5 61.2-1.4 3.6-2.9 9.5-3.3 13-.4 3.4-2.2 10.5-4 15.7-4.7 13-4.4 17.6 1.3 18.6 7.5 1.2 24.2-16.7 33-35.4 1.9-4.1 4.7-9.3 6.2-11.5 3.1-4.5 7.2-12.1 21.1-39.1 13.3-25.8 26.2-50.2 29.7-56 1.7-2.8 5.9-9.7 9.5-15.5 3.6-5.8 8.7-14.1 11.3-18.5 2.7-4.4 5.9-9.6 7.1-11.5 4.7-7.4 14.7-25.7 17-31.2 4.4-10.5 2.9-14.8-7-19.4-6.5-3-8.1-3-11.2.1zM419.2 391.1c-5.1 2.5-14.9 12.8-22.4 23.4-6.8 9.8-9 14-11.7 22.9-1.2 3.8-5.7 13.5-10 21.5-7.9 14.8-14.7 27.8-30.6 58.6-9.1 17.7-17.1 33-28.7 55-18.6 35.1-26.3 54-27.4 67.1-1.1 12.5 2.7 14.2 11.3 5.2 5.2-5.3 13.1-10.8 15.6-10.8 2.7 0 9.2-8.5 14.7-19.2 6-11.8 8-14.9 12.5-19.8 10.2-11 43.3-76.6 58.2-115 5.5-14.1 8.9-20.2 16.9-30.1 5.9-7.2 11.4-15.5 17.2-25.9 1.4-2.5 3.3-5.9 4.2-7.5 2.2-3.9 8.6-18.3 9.5-21.3.5-1.9.1-2.5-3.2-3.8-2.2-1-7.6-1.8-12.9-2-7.5-.3-9.7 0-13.2 1.7zM256.8 391.3c-.9.6-1.9 2.9-2.3 5-.3 2.2-2.9 9.4-5.6 16-2.8 6.7-6.8 16.7-8.9 22.2-4.5 11.6-9.4 20.9-24.9 47-6.2 10.4-13.9 24.5-17.2 31.1-3.2 6.7-8.2 16.2-11 21-2.8 4.9-6.3 10.9-7.7 13.4-1.4 2.5-8.1 13.9-15 25.5-13.8 23.2-22.2 39.4-27.7 53-1.9 4.9-6.7 14.4-10.5 21-14.8 25.8-21.4 45.3-17.1 50.6 2.3 2.9 6.1 2 14.3-3.3 3.5-2.3 8.2-4.9 10.4-5.9 7.8-3.3 13.9-12 27.6-38.8 4.9-9.6 10.4-19.5 12.3-22.1 1.8-2.5 5.4-8.6 7.8-13.5 2.5-5 9.8-17.1 16.3-27 16.1-24.7 19.1-30 23-41.2 5.8-16.5 20-41.8 28.4-50.8 5.7-6.1 9.9-12.5 21.8-33 5.2-9.1 23.6-45.3 26-51.4 2.1-5 2.1-5.6.6-7.9-4-6.1-35.9-14.7-40.6-10.9z"/></svg>