<?xml version="1.0" encoding="UTF-8"?>
<svg width="89px" height="89px" viewBox="0 0 89 89" version="1.1" xmlns="http://www.w3.org/2000/svg" xmlns:xlink="http://www.w3.org/1999/xlink">
    <title>Sync</title>
    <g id="Page-1" stroke="none" stroke-width="1" fill="none" fill-rule="evenodd">
        <path d="M44.125591,-1.13686838e-13 C19.78513,-1.13686838e-13 0.000289591837,19.78454 0.000289591837,44.12495 C-0.0147075076,45.2068561 0.55371984,46.2131898 1.48821147,46.7586073 C2.4227031,47.3040248 3.57847867,47.3040248 4.5129703,46.7586073 C5.44746193,46.2131898 6.01588928,45.2068561 6.00059099,44.12495 C6.00059099,23.02718 23.02777,6 44.125591,6 C56.470497,6 67.407301,11.86882 74.375591,20.9375 L61.969341,20.9375 C60.8874332,20.9221991 59.8810969,21.4906259 59.3356778,22.4251185 C58.7902588,23.3596112 58.7902588,24.5153888 59.3356778,25.4498815 C59.8810969,26.3843741 60.8874332,26.9528009 61.969341,26.9375 L80.875591,26.9375 C82.5323766,26.9373343 83.8762401,25.5942856 83.8762401,23.9375 L83.8762401,5.03125 C83.8924703,4.21940235 83.5795583,3.43538254 83.0083233,2.85825853 C82.4370884,2.28113453 81.6563191,1.96019801 80.844341,1.96875 C80.043202,1.97700185 79.2786409,2.30533047 78.7209934,2.88058784 C78.163346,3.45584521 77.858939,4.23024161 77.875591,5.03125 L77.875591,15.6875 C69.770291,6.1032 57.636025,-1.13686838e-13 44.125591,-1.13686838e-13 L44.125591,-1.13686838e-13 Z M85.219341,41.09375 C83.5748057,41.1280887 82.2645418,42.4801472 82.281841,44.12495 C82.281841,65.22275 65.223431,82.28125 44.125591,82.28125 C31.780685,82.28125 20.843887,76.41755 13.875591,67.34375 L26.313091,67.34375 C27.3949987,67.3590509 28.4013351,66.7906241 28.9467542,65.8561315 C29.4921732,64.9216388 29.4921732,63.7658612 28.9467542,62.8313685 C28.4013351,61.8968759 27.3949987,61.3284491 26.313091,61.34375 L7.37559099,61.34375 C7.28189253,61.3393535 7.18803944,61.3393535 7.09434099,61.34375 C5.54827424,61.4894624 4.36889496,62.7908464 4.37528969,64.34375 L4.37528969,83.24995 C4.36029012,84.3318577 4.92871688,85.3381941 5.86320954,85.8836132 C6.7977022,86.4290322 7.95347978,86.4290322 8.88797244,85.8836132 C9.8224651,85.3381941 10.3908919,84.3318577 10.375591,83.24995 L10.375591,72.56245 C18.474295,82.16975 30.596499,88.28125 44.125591,88.28125 C68.466061,88.28125 88.2820071,68.46535 88.2820071,44.12495 C88.2903793,43.3129806 87.9694368,42.5322243 87.3923143,41.9610002 C86.8151919,41.3897762 86.0311799,41.076871 85.219341,41.09375 L85.219341,41.09375 Z" id="Shape" fill="#FFFFFF" fill-rule="nonzero"></path>
    </g>
</svg>